<?xml version="1.0" encoding="utf-8"?>
<!-- Generator: Adobe Illustrator 25.2.1, SVG Export Plug-In . SVG Version: 6.00 Build 0)  -->
<svg version="1.1" id="Layer_1" xmlns="http://www.w3.org/2000/svg" xmlns:xlink="http://www.w3.org/1999/xlink" x="0px" y="0px"
	 viewBox="0 0 1440 1728" style="enable-background:new 0 0 1440 1728;" xml:space="preserve">
<style type="text/css">
	.st0{fill:#F0F0F0;}
	.st1{fill:#FFFFFF;}
	.st2{fill:#9E616A;}
	.st3{fill:#F96126;}
	.st4{fill:#2F2E41;}
	.st5{fill:#FFA701;}
	.st6{fill:#3F3D56;}
	.st7{fill:#CACACA;}
</style>
<path class="st0" d="M1288.24,379.82c-9.59-6.77-20.09-13.83-31.83-13.55c-28.41,0.68-43.73,42.34-72.12,40.87
	c-18.1-0.93-30.12-19.32-46.97-25.99c-21.94-8.68-49.87,8.3-52.26,31.77l2.82-2.58c85.3,20.79,173.81,24.88,260.66,12.04
	C1328.44,408.2,1308.34,394.01,1288.24,379.82z"/>
<path class="st0" d="M22.54,1450.66c11.32-91.02,67.73-180.71,154.54-210.33c-34.24,93.69-34.23,196.47,0.02,290.15
	c13.34,36.08,31.93,74.82,19.39,111.19c-7.81,22.63-26.9,39.94-48.25,50.76c-21.35,10.82-45.04,15.98-68.44,21.04l-4.6,3.81
	C38.05,1633.41,11.22,1541.68,22.54,1450.66z"/>
<path class="st1" d="M177.94,1242.05c-50.55,56.64-81.97,127.78-89.8,203.29c-1.58,16.19-1.77,32.75,1.77,48.71
	c3.57,15.53,11.23,29.82,22.19,41.38c10,10.99,21.5,21.07,28.66,34.3c7.54,13.94,7.83,29.79,2.67,44.6
	c-6.32,18.12-18.77,32.89-31.45,46.91c-14.08,15.57-28.95,31.51-34.93,52.15c-0.73,2.5-4.56,1.23-3.84-1.27
	c10.41-35.91,45.27-56.3,61.89-88.64c7.76-15.09,11.01-32.61,3.74-48.54c-6.36-13.93-18.21-24.34-28.43-35.38
	c-10.73-11.59-18.96-24.31-23.2-39.65c-4.34-15.7-4.79-32.3-3.64-48.46c2.9-36.62,11.53-72.56,25.59-106.5
	c15.83-38.82,38.19-74.65,66.1-105.93C177,1237.08,179.66,1240.12,177.94,1242.05L177.94,1242.05z"/>
<path class="st1" d="M89.23,1420.88c-25.8-6.26-43.26-30.3-41.25-56.77c0.21-2.59,4.24-2.39,4.04,0.2
	c-1.92,24.66,14.41,47.04,38.48,52.73C93.03,1417.64,91.75,1421.47,89.23,1420.88z"/>
<path class="st1" d="M106.3,1530.52c22.56-13.47,39.22-34.95,46.65-60.16c0.73-2.5,4.57-1.23,3.84,1.27
	c-7.78,26.22-25.16,48.53-48.67,62.5C105.87,1535.46,104.07,1531.85,106.3,1530.52L106.3,1530.52z"/>
<path class="st1" d="M128.75,1309.96c9.32,4.43,20.25,3.88,29.07-1.48c2.22-1.36,4.03,2.26,1.82,3.61
	c-9.77,5.86-21.82,6.5-32.16,1.7c-1.03-0.38-1.6-1.5-1.29-2.55C126.55,1310.19,127.69,1309.61,128.75,1309.96L128.75,1309.96z"/>
<path class="st0" d="M441.69,1402.9c-1.36,0.89-2.73,1.77-4.09,2.7c-18.28,12.02-35.56,25.51-51.66,40.33
	c-1.26,1.13-2.53,2.29-3.75,3.45c-38.4,36.12-69.77,79.05-92.5,126.62c-9.03,18.94-16.6,38.53-22.66,58.62
	c-8.36,27.74-15.22,58.48-31.77,81.17c-1.7,2.39-3.55,4.67-5.53,6.82H80.19c-0.34-0.17-0.68-0.31-1.02-0.48l-5.97,0.27
	c0.24-1.06,0.51-2.15,0.75-3.21c0.14-0.61,0.31-1.23,0.44-1.84c0.1-0.41,0.2-0.82,0.27-1.19c0.03-0.14,0.07-0.27,0.1-0.38
	c0.07-0.38,0.17-0.72,0.24-1.06c1.5-6.11,3.05-12.21,4.64-18.32c0-0.03,0-0.03,0.03-0.07c12.25-46.5,28.49-92.39,51.18-134.36
	c0.68-1.26,1.36-2.56,2.12-3.82c10.33-18.86,22.19-36.84,35.45-53.77c7.29-9.25,15.05-18.12,23.24-26.58
	c21.2-21.82,45.7-40.18,72.6-54.39c53.64-28.32,115.73-39.17,173.05-21.87C438.79,1401.98,440.22,1402.43,441.69,1402.9z"/>
<path class="st1" d="M441.35,1404.8c-74.47,14.79-142.38,52.67-194.1,108.25c-11.01,11.98-21.13,25.08-27.91,39.95
	c-6.5,14.55-8.98,30.57-7.2,46.4c1.37,14.8,4.48,29.77,2.23,44.64c-2.37,15.67-11.68,28.5-24.72,37.21
	c-15.95,10.66-34.79,14.96-53.35,18.52c-20.61,3.95-42.09,7.73-59.29,20.61c-2.08,1.56-4.38-1.77-2.3-3.32
	c29.93-22.4,70.04-17.7,102.79-33.51c15.28-7.38,28.43-19.41,32.21-36.51c3.31-14.95,0.11-30.4-1.4-45.36
	c-1.59-15.72-0.51-30.83,5.35-45.63c5.99-15.14,15.62-28.67,26.27-40.88c24.36-27.5,52.89-50.99,84.55-69.62
	c36.02-21.47,75.44-36.61,116.56-44.78C443.59,1400.27,443.88,1404.3,441.35,1404.8L441.35,1404.8z"/>
<path class="st1" d="M262.85,1494.18c-16.83-20.54-16.3-50.24,1.24-70.16c1.73-1.95,4.83,0.64,3.1,2.59
	c-16.38,18.53-16.81,46.23-1.02,65.27C267.84,1493.88,264.5,1496.17,262.85,1494.18z"/>
<path class="st1" d="M210.46,1592c26.13,2.83,52.36-4.3,73.46-19.95c2.09-1.55,4.39,1.77,2.3,3.32
	c-21.99,16.25-49.31,23.61-76.49,20.6C207.15,1595.69,207.89,1591.71,210.46,1592L210.46,1592z"/>
<path class="st1" d="M361.18,1429.41c4.78,9.15,13.83,15.28,24.1,16.32c2.59,0.26,1.85,4.23-0.72,3.98
	c-11.33-1.2-21.34-7.94-26.7-18c-0.6-0.93-0.37-2.16,0.51-2.81C359.29,1428.27,360.55,1428.49,361.18,1429.41L361.18,1429.41z"/>
<path class="st0" d="M456.28,1384.02c14.09-113.33,84.33-224.99,192.41-261.87c-42.62,116.65-42.61,244.61,0.03,361.25
	c16.61,44.92,39.76,93.16,24.14,138.44c-9.72,28.17-33.5,49.73-60.08,63.2c-26.58,13.48-56.08,19.9-85.21,26.2l-5.73,4.74
	C475.59,1611.56,442.18,1497.35,456.28,1384.02z"/>
<path class="st1" d="M649.76,1124.29c-62.3,69.76-102.72,159.88-111.8,253.11c-1.96,20.16-2.2,40.77,2.2,60.64
	c4.44,19.33,13.98,37.12,27.63,51.52c12.45,13.68,26.77,26.23,35.68,42.7c9.39,17.36,9.75,37.08,3.32,55.52
	c-7.87,22.56-23.37,40.95-39.16,58.41c-17.53,19.38-36.04,39.24-43.49,64.93c-0.9,3.11-5.68,1.53-4.78-1.58
	c12.96-44.71,56.36-70.1,77.06-110.36c9.66-18.79,13.71-40.6,4.66-60.43c-7.92-17.34-22.67-30.3-35.4-44.04
	c-13.36-14.43-23.61-30.26-28.89-49.37c-5.4-19.54-5.97-40.21-4.53-60.33c3.61-45.59,14.36-90.34,31.87-132.59
	c19.71-48.34,47.55-92.94,82.3-131.89C648.58,1118.11,651.9,1121.9,649.76,1124.29L649.76,1124.29z"/>
<path class="st1" d="M539.31,1346.94c-32.12-7.8-53.87-37.72-51.36-70.68c0.26-3.23,5.29-2.98,5.03,0.25
	c-2.39,30.7,17.94,58.56,47.91,65.65C544.04,1342.91,542.44,1347.69,539.31,1346.94L539.31,1346.94z"/>
<path class="st1" d="M560.56,1483.46c28.09-16.77,48.83-43.52,58.08-74.9c0.91-3.11,5.69-1.53,4.78,1.58
	c-9.68,32.64-31.32,60.43-60.59,77.82C560.03,1489.61,557.78,1485.1,560.56,1483.46L560.56,1483.46z"/>
<path class="st1" d="M588.51,1208.84c11.61,5.52,25.21,4.82,36.19-1.84c2.77-1.69,5.01,2.82,2.26,4.5
	c-12.17,7.3-27.16,8.1-40.04,2.12c-1.29-0.47-1.99-1.86-1.6-3.18C585.77,1209.13,587.19,1208.42,588.51,1208.84z"/>
<path class="st0" d="M978.13,1324.57c-1.7,1.1-3.4,2.21-5.1,3.36c-22.76,14.97-44.27,31.76-64.31,50.21
	c-1.57,1.4-3.14,2.85-4.67,4.29c-47.81,44.97-86.86,98.42-115.16,157.64c-11.24,23.58-20.67,47.97-28.21,72.98
	c-10.41,34.54-18.95,72.81-39.55,101.06c-2.12,2.97-4.41,5.81-6.88,8.5H528.06c-0.42-0.21-0.85-0.38-1.27-0.59l-7.43,0.34
	c0.3-1.32,0.64-2.68,0.94-3.99c0.17-0.76,0.38-1.53,0.55-2.29c0.13-0.51,0.26-1.02,0.34-1.49c0.04-0.17,0.09-0.34,0.13-0.47
	c0.09-0.47,0.21-0.89,0.3-1.32c1.87-7.6,3.79-15.21,5.78-22.81c0-0.04,0-0.04,0.04-0.09c15.25-57.9,35.47-115.03,63.72-167.28
	c0.85-1.57,1.7-3.19,2.63-4.76c12.86-23.48,27.63-45.87,44.14-66.95c9.08-11.51,18.73-22.56,28.93-33.09
	c26.4-27.17,56.9-50.02,90.4-67.71c66.78-35.26,144.09-48.77,215.46-27.23C974.52,1323.42,976.3,1323.97,978.13,1324.57z"/>
<path class="st1" d="M977.71,1326.93c-91.74,18.19-178.27,65.81-241.66,134.78c-13.7,14.91-26.31,31.23-34.75,49.74
	c-8.09,18.11-11.19,38.06-8.96,57.77c1.71,18.42,5.58,37.06,2.78,55.58c-2.95,19.51-14.54,35.48-30.78,46.33
	c-19.86,13.28-43.31,18.63-66.43,23.06c-25.66,4.92-52.4,9.63-73.82,25.66c-2.6,1.94-5.46-2.2-2.87-4.14
	c37.27-27.89,87.2-22.04,127.97-41.73c19.02-9.19,35.39-24.16,40.1-45.45c4.12-18.61,0.14-37.84-1.75-56.48
	c-1.98-19.57-0.63-38.38,6.66-56.81c7.46-18.86,19.45-35.7,32.71-50.9c30.33-34.23,65.86-63.48,105.27-86.68
	c44.84-26.73,93.92-45.58,145.12-55.76C980.49,1321.28,980.86,1326.31,977.71,1326.93L977.71,1326.93z"/>
<path class="st1" d="M755.47,1438.21c-20.95-25.57-20.3-62.55,1.55-87.36c2.15-2.42,6.01,0.8,3.86,3.23
	c-20.39,23.07-20.93,57.56-1.27,81.26C761.68,1437.84,757.53,1440.69,755.47,1438.21L755.47,1438.21z"/>
<path class="st1" d="M690.25,1560c32.53,3.52,65.19-5.35,91.46-24.84c2.6-1.93,5.46,2.21,2.87,4.14
	c-27.38,20.23-61.39,29.39-95.23,25.65C686.12,1564.59,687.04,1559.64,690.25,1560L690.25,1560z"/>
<path class="st1" d="M877.9,1357.56c5.95,11.39,17.22,19.03,30.01,20.32c3.23,0.32,2.31,5.27-0.9,4.95
	c-14.11-1.5-26.56-9.89-33.24-22.41c-0.74-1.15-0.47-2.68,0.64-3.5C875.54,1356.14,877.11,1356.43,877.9,1357.56L877.9,1357.56z"/>
<path class="st2" d="M287.35,1127.6c12.42-3.83,19.39-17,15.56-29.43c-0.41-1.32-0.93-2.61-1.57-3.84l72.69-201.68l-50.4-8.96
	l-55.6,201.06c-11.2,6.74-14.81,21.28-8.08,32.48C265.59,1126.6,276.92,1130.89,287.35,1127.6L287.35,1127.6z"/>
<path class="st3" d="M389.67,846.45c-6.74-14.7-24.12-21.15-38.81-14.42c-1,0.46-1.96,0.97-2.9,1.53
	c-5.58,3.3-9.87,8.39-12.18,14.44l-26.14,46.27c-2.87,5.08-1.08,11.52,4,14.39c0.45,0.26,0.93,0.48,1.41,0.67l1.36,0.53l10.1,3.88
	l35.08,13.47l3.22,1.25c5.44,2.09,11.55-0.63,13.64-6.07c0.19-0.48,0.33-0.98,0.45-1.48l4.14-18.6l7.38-33.08
	C393.26,861.84,392.99,853.62,389.67,846.45z"/>
<rect x="351.09" y="961.61" class="st2" width="120.22" height="120.22"/>
<polygon class="st2" points="284.88,1680.14 308.56,1680.13 319.83,1588.77 284.87,1588.77 "/>
<path class="st4" d="M349.9,1706.83l-35.6-24.58v-16.04l-4.03,0.24h-0.02l-25.35,1.53h-0.02l-8.02,0.46l-4.58,54.84l-0.13,1.82h16.8
	l0.33-1.82l2.67-14.04l6.81,14.04l0.88,1.82h44.56c2.06,0.02,4.07-0.62,5.74-1.82c2.68-1.85,4.28-4.91,4.27-8.17
	C354.22,1711.81,352.61,1708.71,349.9,1706.83z"/>
<polygon class="st2" points="423.4,1665.1 446.17,1671.64 482.25,1586.96 448.65,1577.29 "/>
<path class="st4" d="M478.51,1708.75l-27.43-33.48l4.45-15.42l-3.94-0.88h-0.02l-21.98-4.93l-2.83-0.64l-7.82-1.75l-20.2,53.13
	l16.13,4.67l7.3-14.44l2.98,17.37l10.17,2.91l27.67,7.98l5.02,1.45c2.91,0.82,6.04,0.29,8.52-1.45c1.88-1.3,3.25-3.22,3.88-5.41
	C481.3,1714.71,480.6,1711.3,478.51,1708.75z"/>
<path class="st2" d="M460.55,735.26c-8.97,16.46-24.74,28.13-43.1,31.9c-1.01,0.22-2.02,0.39-3.05,0.55
	c-34.82,5.44-67.46-18.37-72.9-53.19c-5.44-34.82,18.37-67.46,53.19-72.9s67.46,18.37,72.9,53.19
	C469.77,708.7,467.29,722.92,460.55,735.26z"/>
<path class="st4" d="M561.63,1444.51c4.07-10.72,2.82-22.74-3.37-32.39l-54.57-283.06l-21.47-107.34H353.41
	c0,0-80.5,89.09-63.33,202.87l-4.81,160.24c-4.56,10.99-5.68,23.1-3.23,34.75l1.91,9.06l-0.74,1.37
	c-7.13,13.2-7.35,29.06-0.58,42.45l-5.44,181.5l38.64-2.15l56.89-211.46l37.57-189.99l63.33,147.06l2.15,34.35l-1.04,30.28
	l-49.41,176.89l41.86,16.1L561.63,1444.51z"/>
<path class="st3" d="M461.62,853.77l-30.21-30.39l1.49-7.93c1.52-8.28-2.64-16.56-10.19-20.29l-39.33-19.32
	c-9.31-4.57-20.57-0.73-25.14,8.59c-0.9,1.83-1.5,3.8-1.76,5.83l-4.51,34.86c-0.39,0.74-1.88,3.7-4.01,8.46
	c-7.27,16.57-12.91,33.81-16.85,51.47c-2.12,9.46-3.65,19.05-4.6,28.7c-2.35,21.53-0.71,43.3,4.82,64.24
	c1.93,6.88,2.98,8.74,3.59,9.44c-0.47,3.08-0.78,6.18-0.92,9.29l-0.07,1.12l2.17,0.09l14.99,0.61l106.96,4.43l13.26,0.55l3.35,0.13
	l7.73-42.4l2.23-12.25C486.31,945.55,514.51,885.67,461.62,853.77z"/>
<path class="st2" d="M565.32,1099.8c4.76-12.1-1.19-25.76-13.28-30.52c-1.29-0.51-2.62-0.9-3.98-1.17L435.83,885.45l-38.45,33.79
	l122.4,168.92c-1.72,12.96,7.38,24.85,20.34,26.58C550.96,1116.17,561.38,1110,565.32,1099.8z"/>
<path class="st3" d="M460.94,899.3l-33.19-41.28c-7.74-13.19-24.31-18.22-38.08-11.57c-0.7,0.32-1.38,0.68-2.04,1.07
	c-13.92,8.15-18.64,26.01-10.56,39.96l5.96,14.81l13.89,34.49c2.17,5.41,8.32,8.03,13.73,5.85c0.48-0.19,0.94-0.42,1.39-0.68
	l1.27-0.74l41.76-24.45l2.98-1.75c2.65-1.54,4.49-4.17,5.04-7.19C463.63,904.8,462.85,901.7,460.94,899.3z"/>
<circle class="st5" cx="1341.41" cy="331.33" r="98.59"/>
<path class="st0" d="M298.9,427.48c-12.23-8.63-25.6-17.63-40.56-17.27c-36.21,0.87-55.73,53.95-91.91,52.09
	c-23.07-1.19-38.38-24.63-59.86-33.12c-27.96-11.06-63.55,10.57-66.6,40.49l3.59-3.29c108.7,26.5,221.51,31.71,332.19,15.35
	C350.13,463.64,324.52,445.56,298.9,427.48z"/>
<path class="st0" d="M1017.94,585.87c-11.73-8.28-24.55-16.91-38.9-16.56c-34.73,0.84-53.45,51.74-88.14,49.95
	c-22.12-1.14-36.81-23.62-57.41-31.77c-26.82-10.61-60.95,10.14-63.87,38.83l3.44-3.15c104.25,25.41,212.43,30.41,318.58,14.72
	C1067.07,620.55,1042.5,603.21,1017.94,585.87z"/>
<path class="st4" d="M435.17,648.65c-20.88-14.36-39.27-16.55-54.37-12.47c-1.96-3.03-4.7-5.47-7.94-7.05
	c-11.78-29.68-47.63-47.51-78.39-38.84c-30.96,8.72-52.33,43.02-46.5,74.66c3.61,19.61,15.95,36.59,20.92,55.9
	c9.61,37.38-13.83,80.21-50.5,92.26c34.72,6.97,72.94-14.24,85.39-47.39c6.05-16.1,6.41-33.68,7.18-50.87
	c0.77-17.18,2.15-34.88,9.94-50.22c5.22-10.52,13.89-18.93,24.56-23.83c-1.94,6-0.87,12.56,2.86,17.64
	c-8.14,10.2-12.57,21.23-12.57,27.84c-16.91,30.91,7.27,57.47,38.19,74.38c12.33,6.78,26.57,9.26,40.47,7.05l1.29-5.52l1.75,4.97
	l5.85,16.67c6.75,3.26,13.44,6.84,20.07,10.74c-2.52-11.83-4.56-23.64-5.96-35.19c-1.94-15.72,4.83-39.11,9.71-53.34
	c3.03-8.77,4.58-17.98,4.6-27.26v-0.41l4.75,15.27l17.31-7.38C470.56,667.8,473.78,646.83,435.17,648.65z"/>
<path class="st6" d="M1041.81,1641.02l-6.42,1.46c4.33,14.09,6.65,28.72,6.88,43.46c0.17,7.35-0.25,14.7-1.26,21.98
	c-0.76,5.17-2.19,11.09-7.32,13.51c-3.82,1.8-0.49,7.47,3.32,5.68c5.78-2.72,8.6-8.82,9.86-14.78c1.44-7.69,2.1-15.5,1.98-23.32
	C1048.92,1672.74,1046.55,1656.57,1041.81,1641.02z"/>
<path id="b60e4ce1-288a-47b0-9166-e85164baad32-625" class="st6" d="M1038.15,1730.61c0,0-23.5-57.85,47-101.24L1038.15,1730.61z"/>
<path id="fef604e2-08c9-431b-a72b-c19cbc53b460-626" class="st6" d="M1045.66,1729.56c0,0-7.17-41.23-62.66-40.88L1045.66,1729.56z"
	/>
<circle class="st3" cx="1041.24" cy="1631.26" r="19.72"/>
<path class="st7" d="M1420.8,1730.61H2.6c-1.44-0.01-2.6-1.18-2.6-2.62c0.01-1.43,1.17-2.59,2.6-2.6H1420.8
	c1.44,0.01,2.6,1.18,2.6,2.62C1423.39,1729.44,1422.23,1730.6,1420.8,1730.61z"/>
</svg>
