<?xml version="1.0" encoding="utf-8"?>
<!-- Generator: Adobe Illustrator 25.2.1, SVG Export Plug-In . SVG Version: 6.00 Build 0)  -->
<svg version="1.1" id="Layer_1" xmlns="http://www.w3.org/2000/svg" xmlns:xlink="http://www.w3.org/1999/xlink" x="0px" y="0px"
	 viewBox="0 0 1440 1728" style="enable-background:new 0 0 1440 1728;" xml:space="preserve">
<style type="text/css">
	.st0{fill:#F0F0F0;}
	.st1{fill:#FFFFFF;}
	.st2{fill:#FFB6B6;}
	.st3{fill:#9E616A;}
	.st4{fill:#2F2E41;}
	.st5{fill:#F77128;}
	.st6{fill:#FFA701;}
	.st7{fill:#CC9933;}
	.st8{fill:#3F3D56;}
	.st9{fill:#F96126;}
	.st10{fill:#CACACA;}
</style>
<path class="st0" d="M1286.01,381.8c-9.58-6.76-20.05-13.81-31.77-13.53c-28.36,0.68-43.65,42.26-71.98,40.79
	c-18.07-0.93-30.06-19.29-46.88-25.94c-21.9-8.66-49.77,8.28-52.16,31.71l2.81-2.57c85.13,20.75,173.48,24.84,260.16,12.02
	C1326.13,410.13,1306.07,395.96,1286.01,381.8z"/>
<path class="st0" d="M22.74,1450.58c11.3-90.85,67.6-180.36,154.24-209.93c-34.17,93.51-34.16,196.09,0.02,289.59
	c13.31,36.01,31.87,74.68,19.35,110.98c-7.79,22.58-26.85,39.86-48.16,50.67c-21.31,10.8-44.96,15.95-68.31,21l-4.6,3.8
	C38.21,1632.99,11.44,1541.43,22.74,1450.58z"/>
<path class="st1" d="M177.84,1242.37c-50.46,56.53-81.82,127.53-89.63,202.9c-1.57,16.16-1.77,32.69,1.77,48.61
	c3.56,15.5,11.21,29.76,22.15,41.3c9.98,10.97,21.46,21.03,28.6,34.23c7.53,13.92,7.82,29.73,2.66,44.51
	c-6.31,18.09-18.73,32.83-31.39,46.82c-14.05,15.54-28.89,31.45-34.86,52.05c-0.72,2.5-4.55,1.23-3.83-1.27
	c10.39-35.84,45.18-56.19,61.77-88.47c7.74-15.06,10.99-32.55,3.73-48.45c-6.35-13.9-18.18-24.29-28.38-35.31
	c-10.71-11.57-18.93-24.26-23.16-39.58c-4.33-15.67-4.78-32.24-3.63-48.36c2.89-36.55,11.51-72.42,25.55-106.29
	c15.8-38.75,38.12-74.51,65.98-105.73C176.9,1237.42,179.55,1240.46,177.84,1242.37L177.84,1242.37z"/>
<path class="st1" d="M89.3,1420.86c-25.75-6.25-43.18-30.24-41.17-56.66c0.21-2.59,4.24-2.39,4.03,0.2
	c-1.92,24.61,14.39,46.95,38.41,52.63C93.09,1417.63,91.81,1421.46,89.3,1420.86z"/>
<path class="st1" d="M106.33,1530.3c22.52-13.45,39.14-34.89,46.56-60.04c0.73-2.49,4.56-1.23,3.83,1.27
	c-7.76,26.17-25.11,48.44-48.57,62.38C105.91,1535.23,104.11,1531.62,106.33,1530.3L106.33,1530.3z"/>
<path class="st1" d="M128.74,1310.15c9.3,4.42,20.21,3.87,29.02-1.47c2.22-1.35,4.02,2.26,1.81,3.6c-9.75,5.85-21.78,6.49-32.1,1.7
	c-1.03-0.38-1.59-1.49-1.28-2.55C126.54,1310.38,127.68,1309.81,128.74,1310.15L128.74,1310.15z"/>
<path class="st0" d="M441.08,1402.92c-1.36,0.89-2.72,1.77-4.09,2.69c-18.25,12-35.49,25.46-51.56,40.25
	c-1.26,1.12-2.52,2.28-3.75,3.44c-38.33,36.05-69.63,78.9-92.32,126.37c-9.01,18.9-16.57,38.46-22.61,58.5
	c-8.34,27.69-15.19,58.37-31.7,81.01c-1.7,2.38-3.54,4.66-5.52,6.81H80.28c-0.34-0.17-0.68-0.31-1.02-0.48l-5.96,0.27
	c0.24-1.06,0.51-2.15,0.75-3.2c0.14-0.61,0.31-1.23,0.44-1.84c0.1-0.41,0.2-0.82,0.27-1.19c0.03-0.14,0.07-0.27,0.1-0.37
	c0.07-0.37,0.17-0.72,0.24-1.06c1.5-6.1,3.04-12.19,4.63-18.29c0-0.03,0-0.03,0.03-0.07c12.23-46.42,28.44-92.22,51.08-134.1
	c0.68-1.26,1.36-2.55,2.11-3.81c10.31-18.82,22.15-36.77,35.38-53.67c7.28-9.23,15.02-18.08,23.19-26.53
	c21.16-21.78,45.61-40.1,72.47-54.28c53.53-28.26,115.51-39.09,172.72-21.83C438.18,1402,439.61,1402.45,441.08,1402.92z"/>
<path class="st1" d="M440.74,1404.82c-74.32,14.76-142.11,52.57-193.72,108.05c-10.99,11.95-21.09,25.03-27.86,39.88
	c-6.49,14.52-8.97,30.51-7.18,46.31c1.37,14.77,4.48,29.71,2.23,44.55c-2.37,15.64-11.66,28.44-24.67,37.14
	c-15.92,10.64-34.72,14.93-53.25,18.49c-20.57,3.95-42.01,7.72-59.18,20.57c-2.08,1.56-4.37-1.76-2.3-3.32
	c29.87-22.36,69.91-17.67,102.59-33.45c15.25-7.37,28.37-19.37,32.15-36.43c3.3-14.92,0.11-30.34-1.4-45.28
	c-1.59-15.69-0.51-30.77,5.34-45.54c5.98-15.12,15.59-28.62,26.22-40.8c24.31-27.44,52.79-50.89,84.39-69.49
	c35.95-21.42,75.29-36.54,116.34-44.7C442.97,1400.29,443.27,1404.32,440.74,1404.82L440.74,1404.82z"/>
<path class="st1" d="M262.59,1494.02c-16.8-20.5-16.27-50.14,1.24-70.03c1.72-1.94,4.82,0.64,3.1,2.59
	c-16.35,18.5-16.78,46.15-1.02,65.15C267.56,1493.72,264.23,1496.01,262.59,1494.02z"/>
<path class="st1" d="M210.3,1591.66c26.08,2.82,52.26-4.29,73.32-19.91c2.09-1.55,4.38,1.77,2.3,3.32
	c-21.95,16.22-49.21,23.56-76.34,20.56C206.99,1595.34,207.73,1591.37,210.3,1591.66L210.3,1591.66z"/>
<path class="st1" d="M360.73,1429.37c4.77,9.13,13.81,15.25,24.05,16.29c2.59,0.25,1.85,4.22-0.72,3.97
	c-11.31-1.2-21.29-7.93-26.65-17.97c-0.6-0.92-0.37-2.15,0.51-2.81C358.84,1428.24,360.09,1428.46,360.73,1429.37L360.73,1429.37z"
	/>
<path class="st0" d="M455.64,1384.07c14.07-113.11,84.17-224.56,192.04-261.37c-42.54,116.42-42.53,244.14,0.03,360.56
	c16.58,44.84,39.68,92.98,24.09,138.17c-9.7,28.12-33.43,49.63-59.96,63.08c-26.53,13.45-55.97,19.86-85.05,26.15l-5.72,4.73
	C474.91,1611.17,441.57,1497.18,455.64,1384.07z"/>
<path class="st1" d="M648.75,1124.85c-62.18,69.63-102.52,159.57-111.59,252.62c-1.96,20.12-2.2,40.69,2.2,60.52
	c4.43,19.29,13.96,37.05,27.57,51.42c12.43,13.65,26.72,26.18,35.61,42.62c9.37,17.33,9.73,37.01,3.32,55.42
	c-7.85,22.52-23.32,40.87-39.08,58.3c-17.49,19.34-35.97,39.16-43.41,64.81c-0.9,3.11-5.67,1.53-4.77-1.58
	c12.94-44.62,56.25-69.96,76.91-110.15c9.64-18.75,13.68-40.52,4.65-60.32c-7.9-17.31-22.63-30.24-35.33-43.96
	c-13.34-14.4-23.57-30.21-28.83-49.27c-5.39-19.51-5.96-40.14-4.52-60.22c3.6-45.51,14.33-90.17,31.8-132.34
	c19.67-48.24,47.46-92.76,82.14-131.64C647.57,1118.67,650.88,1122.46,648.75,1124.85L648.75,1124.85z"/>
<path class="st1" d="M538.51,1347.07c-32.06-7.78-53.76-37.65-51.26-70.55c0.26-3.22,5.27-2.98,5.02,0.25
	c-2.39,30.64,17.91,58.45,47.82,65.52C543.23,1343.05,541.64,1347.81,538.51,1347.07L538.51,1347.07z"/>
<path class="st1" d="M559.72,1483.32c28.04-16.74,48.73-43.43,57.96-74.76c0.91-3.1,5.68-1.53,4.77,1.58
	c-9.67,32.58-31.26,60.31-60.47,77.67C559.19,1489.46,556.95,1484.96,559.72,1483.32L559.72,1483.32z"/>
<path class="st1" d="M587.62,1209.23c11.58,5.5,25.16,4.82,36.13-1.83c2.76-1.69,5,2.81,2.26,4.49
	c-12.15,7.29-27.11,8.08-39.96,2.12c-1.29-0.47-1.99-1.86-1.6-3.17C584.89,1209.52,586.3,1208.81,587.62,1209.23z"/>
<path class="st0" d="M976.49,1324.74c-1.7,1.1-3.39,2.2-5.09,3.35c-22.72,14.94-44.19,31.7-64.19,50.11
	c-1.57,1.4-3.14,2.84-4.66,4.28c-47.72,44.88-86.69,98.23-114.94,157.34c-11.22,23.53-20.63,47.88-28.15,72.84
	c-10.39,34.47-18.91,72.67-39.47,100.86c-2.11,2.97-4.41,5.8-6.87,8.48H527.28c-0.42-0.21-0.85-0.38-1.27-0.59l-7.42,0.34
	c0.3-1.31,0.64-2.67,0.93-3.99c0.17-0.76,0.38-1.53,0.55-2.29c0.13-0.51,0.25-1.02,0.34-1.48c0.04-0.17,0.08-0.34,0.13-0.47
	c0.08-0.47,0.21-0.89,0.3-1.31c1.87-7.59,3.79-15.18,5.77-22.77c0-0.04,0-0.04,0.04-0.08c15.22-57.79,35.4-114.81,63.6-166.96
	c0.85-1.57,1.7-3.18,2.63-4.75c12.84-23.44,27.57-45.78,44.05-66.82c9.06-11.49,18.7-22.51,28.87-33.03
	c26.34-27.12,56.79-49.93,90.22-67.58c66.65-35.19,143.81-48.67,215.04-27.18C972.89,1323.59,974.67,1324.14,976.49,1324.74z"/>
<path class="st1" d="M976.07,1327.1c-91.57,18.16-177.93,65.69-241.19,134.52c-13.68,14.88-26.26,31.17-34.68,49.65
	c-8.08,18.08-11.16,37.98-8.94,57.66c1.7,18.39,5.57,36.99,2.78,55.47c-2.95,19.48-14.51,35.41-30.72,46.24
	c-19.83,13.25-43.23,18.59-66.3,23.02c-25.61,4.91-52.3,9.61-73.68,25.61c-2.59,1.94-5.45-2.19-2.86-4.13
	c37.19-27.84,87.04-22,127.73-41.65c18.99-9.17,35.32-24.12,40.03-45.36c4.11-18.58,0.14-37.77-1.75-56.37
	c-1.98-19.53-0.63-38.31,6.64-56.7c7.44-18.82,19.41-35.63,32.65-50.8c30.27-34.17,65.73-63.36,105.07-86.52
	c44.75-26.67,93.74-45.5,144.84-55.65C978.85,1321.46,979.22,1326.47,976.07,1327.1L976.07,1327.1z"/>
<path class="st1" d="M754.26,1438.16c-20.91-25.52-20.26-62.43,1.54-87.19c2.14-2.42,6,0.8,3.86,3.22
	c-20.35,23.03-20.89,57.45-1.27,81.11C760.45,1437.79,756.31,1440.63,754.26,1438.16L754.26,1438.16z"/>
<path class="st1" d="M689.16,1559.72c32.46,3.51,65.06-5.34,91.29-24.79c2.6-1.93,5.45,2.2,2.86,4.13
	c-27.33,20.19-61.27,29.33-95.05,25.6C685.05,1564.3,685.96,1559.36,689.16,1559.72L689.16,1559.72z"/>
<path class="st1" d="M876.46,1357.67c5.93,11.37,17.19,18.99,29.95,20.29c3.22,0.32,2.3,5.26-0.9,4.94
	c-14.08-1.49-26.51-9.87-33.18-22.37c-0.74-1.15-0.47-2.68,0.63-3.5C874.1,1356.25,875.66,1356.53,876.46,1357.67L876.46,1357.67z"
	/>
<path class="st2" d="M287.04,1128.14c12.4-3.82,19.35-16.97,15.53-29.37c-0.41-1.32-0.93-2.61-1.56-3.84l72.55-201.29l-38.79-23.48
	l-67,215.21c-11.18,6.73-14.79,21.24-8.06,32.42C265.32,1127.15,276.63,1131.43,287.04,1128.14L287.04,1128.14z"/>
<rect x="350.65" y="962.48" class="st2" width="119.99" height="119.99"/>
<polygon class="st3" points="284.57,1679.62 308.21,1679.62 319.46,1588.43 284.56,1588.44 "/>
<path class="st4" d="M349.47,1706.26l-35.54-24.54v-16.01l-4.02,0.24h-0.02l-25.3,1.53h-0.02l-8,0.46l-4.57,54.74l-0.13,1.82h16.77
	l0.33-1.82l2.67-14.02l6.8,14.02l0.87,1.82h44.48c2.05,0.02,4.06-0.62,5.73-1.82c2.68-1.85,4.28-4.9,4.26-8.16
	C353.78,1711.23,352.17,1708.15,349.47,1706.26z"/>
<polygon class="st3" points="422.83,1664.61 445.55,1671.15 481.56,1586.62 448.03,1576.98 "/>
<path class="st4" d="M477.83,1708.19l-27.38-33.41l4.44-15.39l-3.94-0.87h-0.02l-21.93-4.92l-2.82-0.63l-7.81-1.75l-20.16,53.03
	l16.09,4.66l7.28-14.41l2.97,17.34l10.15,2.91l27.62,7.96l5.01,1.44c2.91,0.82,6.03,0.29,8.51-1.44c1.87-1.3,3.24-3.21,3.87-5.4
	C480.61,1714.13,479.91,1710.73,477.83,1708.19z"/>
<path class="st2" d="M459.9,736.56c-8.95,16.43-24.69,28.08-43.01,31.84c-1.01,0.22-2.01,0.39-3.04,0.55
	c-34.75,5.43-67.33-18.34-72.76-53.09c-5.43-34.75,18.34-67.33,53.09-72.76s67.33,18.34,72.76,53.09
	C469.1,710.05,466.63,724.24,459.9,736.56z"/>
<path class="st4" d="M560.79,1444.45c4.06-10.7,2.81-22.69-3.36-32.33l-54.46-282.51l-21.43-107.13H352.97
	c0,0-80.35,88.92-63.21,202.48l-4.8,159.93c-4.55,10.97-5.67,23.06-3.22,34.68l1.91,9.05l-0.74,1.36c-7.12,13.18-7.33,29-0.58,42.37
	l-5.43,181.15l38.57-2.14l56.78-211.05l37.5-189.63l63.21,146.77l2.14,34.28l-1.04,30.22l-49.31,176.55l41.78,16.07L560.79,1444.45z
	"/>
<path class="st5" d="M460.97,854.84l-30.16-30.33l1.49-7.92c1.52-8.26-2.63-16.53-10.17-20.25l-39.25-19.29
	c-9.3-4.56-20.53-0.73-25.1,8.57c-0.9,1.83-1.49,3.8-1.76,5.82l-4.5,34.79c-0.39,0.74-1.88,3.7-4,8.44
	c-7.25,16.54-12.89,33.74-16.82,51.37c-2.11,9.45-3.65,19.01-4.59,28.65c-2.34,21.49-0.71,43.22,4.81,64.12
	c1.92,6.87,2.97,8.73,3.59,9.43c-0.47,3.07-0.78,6.17-0.92,9.27l-0.07,1.12l2.17,0.09l14.96,0.61l106.76,4.42l13.23,0.55l3.35,0.13
	l7.72-42.31l2.23-12.22C485.62,946.45,513.76,886.68,460.97,854.84z"/>
<path class="st2" d="M564.47,1100.4c4.75-12.07-1.18-25.71-13.26-30.46c-1.29-0.51-2.62-0.9-3.97-1.17L435.78,886.03
	c-6.04-9.91-19.27-12.52-28.62-5.64h0c-12.8,9.41-15.72,27.32-6.57,40.31l118.44,168.08c-1.72,12.93,7.37,24.81,20.3,26.53
	C550.14,1116.74,560.54,1110.58,564.47,1100.4z"/>
<circle class="st6" cx="1339.07" cy="333.4" r="98.4"/>
<path class="st0" d="M298.57,429.37c-12.2-8.61-25.55-17.6-40.49-17.24c-36.14,0.87-55.63,53.85-91.73,51.99
	c-23.02-1.19-38.31-24.58-59.75-33.06c-27.91-11.04-63.43,10.55-66.47,40.41l3.58-3.28c108.49,26.45,221.08,31.65,331.55,15.32
	C349.7,465.46,324.13,447.42,298.57,429.37z"/>
<path class="st0" d="M1016.22,587.46c-11.7-8.26-24.51-16.88-38.83-16.53c-34.66,0.83-53.35,51.64-87.97,49.86
	c-22.08-1.14-36.74-23.57-57.3-31.7c-26.77-10.59-60.83,10.12-63.75,38.76l3.44-3.15c104.05,25.37,212.02,30.35,317.97,14.69
	C1065.26,622.07,1040.74,604.76,1016.22,587.46z"/>
<path class="st7" d="M434.58,650.12c-20.84-14.33-39.19-16.52-54.27-12.45c-1.95-3.02-4.69-5.46-7.93-7.04
	c-11.76-29.62-47.54-47.42-78.24-38.77c-30.9,8.7-52.23,42.94-46.41,74.51c3.6,19.57,15.92,36.52,20.88,55.8
	c9.59,37.31-13.81,80.05-50.4,92.08c34.65,6.96,72.8-14.21,85.23-47.3c6.04-16.07,6.4-33.62,7.17-50.77
	c0.77-17.15,2.15-34.82,9.92-50.12c5.21-10.5,13.86-18.89,24.51-23.78c-1.94,5.99-0.87,12.54,2.86,17.6
	c-8.13,10.18-12.55,21.19-12.55,27.78c-16.88,30.86,7.26,57.36,38.12,74.24c12.31,6.77,26.52,9.25,40.39,7.04l1.29-5.51l1.75,4.96
	l5.84,16.64c6.74,3.26,13.41,6.83,20.03,10.72c-2.51-11.81-4.55-23.6-5.95-35.12c-1.94-15.69,4.82-39.04,9.69-53.24
	c3.02-8.75,4.57-17.94,4.59-27.2v-0.4l4.75,15.24l17.28-7.37C469.89,669.23,473.11,648.3,434.58,650.12z"/>
<path class="st8" d="M1040.05,1640.58l-6.41,1.46c4.33,14.06,6.64,28.66,6.86,43.37c0.17,7.33-0.25,14.67-1.25,21.93
	c-0.76,5.16-2.18,11.07-7.3,13.48c-3.82,1.8-0.49,7.45,3.31,5.66c5.77-2.72,8.58-8.8,9.84-14.76c1.44-7.67,2.1-15.47,1.98-23.27
	C1047.15,1672.25,1044.78,1656.1,1040.05,1640.58z"/>
<path id="b60e4ce1-288a-47b0-9166-e85164baad32-625_1_" class="st8" d="M1036.4,1730c0,0-23.46-57.74,46.91-101.04L1036.4,1730z"/>
<path id="fef604e2-08c9-431b-a72b-c19cbc53b460-626_1_" class="st8" d="M1043.89,1728.95c0,0-7.16-41.15-62.54-40.8L1043.89,1728.95
	z"/>
<circle class="st9" cx="1039.48" cy="1630.84" r="19.68"/>
<path class="st10" d="M1418.31,1730H2.83c-1.44-0.01-2.6-1.18-2.59-2.62c0.01-1.43,1.16-2.58,2.59-2.59h1415.49
	c1.44,0.01,2.6,1.18,2.59,2.62C1420.9,1728.84,1419.74,1729.99,1418.31,1730z"/>
</svg>
